# MagicaVoxel @ Ephtracy

# group
o 

# material
mtllib satutaba.mtl
usemtl palette

# normals
vn -1 0 0
vn 1 0 0
vn 0 0 1
vn 0 0 -1
vn 0 -1 0
vn 0 1 0

# texcoords
vt 0.310547 0.5
vt 0.373047 0.5
vt 0.486328 0.5
vt 0.490234 0.5
vt 0.677734 0.5
vt 0.685547 0.5
vt 0.712891 0.5
vt 0.716797 0.5

# verts
v -0.24 0 0.12
v -0.24 0 -0.12
v -0.24 0.03 0.12
v -0.24 0.03 -0.12
v -0.24 0.06 0.12
v -0.24 0.06 -0.12
v 0.24 0 0.12
v 0.24 0 -0.12
v 0.24 0.03 0.12
v 0.24 0.03 -0.12
v 0.24 0.06 0.12
v 0.24 0.06 -0.12
v -0.24 0 0.12
v -0.24 0.03 0.12
v -0.24 0.06 0.12
v -0.03 0 0.12
v -0.03 0.03 0.12
v -0.03 0.06 0.12
v 0.03 0 0.12
v 0.03 0.03 0.12
v 0.03 0.06 0.12
v 0.24 0 0.12
v 0.24 0.03 0.12
v 0.24 0.06 0.12
v -0.24 0 -0.12
v -0.24 0.03 -0.12
v -0.24 0.06 -0.12
v -0.03 0 -0.12
v -0.03 0.03 -0.12
v -0.03 0.06 -0.12
v 0.03 0 -0.12
v 0.03 0.03 -0.12
v 0.03 0.06 -0.12
v 0.24 0 -0.12
v 0.24 0.03 -0.12
v 0.24 0.06 -0.12
v -0.24 0 0.12
v -0.03 0 0.12
v 0.03 0 0.12
v 0.24 0 0.12
v -0.21 0 0.09
v -0.18 0 0.09
v -0.12 0 0.09
v -0.03 0 0.09
v 0.06 0 0.09
v 0.09 0 0.09
v 0.15 0 0.09
v 0.18 0 0.09
v 0.21 0 0.09
v -0.21 0 0.06
v -0.18 0 0.06
v -0.12 0 0.06
v -0.03 0 0.06
v 0.15 0 0.06
v 0.18 0 0.06
v 0.21 0 0.06
v -0.21 0 0.03
v -0.18 0 0.03
v 0.09 0 0.03
v 0.12 0 0.03
v 0.15 0 0.03
v 0.18 0 0.03
v 0.21 0 0.03
v -0.21 0 0
v -0.18 0 0
v -0.15 0 0
v -0.12 0 0
v -0.06 0 0
v 0.06 0 0
v 0.09 0 0
v 0.12 0 0
v 0.15 0 0
v 0.18 0 0
v 0.21 0 0
v -0.18 0 -0.03
v -0.15 0 -0.03
v -0.12 0 -0.03
v -0.09 0 -0.03
v -0.21 0 -0.06
v -0.15 0 -0.06
v -0.12 0 -0.06
v -0.09 0 -0.06
v -0.06 0 -0.06
v -0.03 0 -0.06
v 0.03 0 -0.06
v 0.09 0 -0.06
v 0.12 0 -0.06
v 0.15 0 -0.06
v 0.18 0 -0.06
v 0.21 0 -0.06
v -0.21 0 -0.09
v -0.15 0 -0.09
v -0.12 0 -0.09
v -0.06 0 -0.09
v -0.03 0 -0.09
v 0.03 0 -0.09
v 0.09 0 -0.09
v 0.12 0 -0.09
v 0.15 0 -0.09
v 0.21 0 -0.09
v -0.24 0 -0.12
v -0.03 0 -0.12
v 0.03 0 -0.12
v 0.24 0 -0.12
v -0.24 0.06 0.12
v -0.03 0.06 0.12
v 0.03 0.06 0.12
v 0.24 0.06 0.12
v -0.21 0.06 0.09
v -0.18 0.06 0.09
v -0.12 0.06 0.09
v -0.03 0.06 0.09
v 0.06 0.06 0.09
v 0.09 0.06 0.09
v 0.15 0.06 0.09
v 0.18 0.06 0.09
v 0.21 0.06 0.09
v -0.21 0.06 0.06
v -0.18 0.06 0.06
v -0.12 0.06 0.06
v -0.03 0.06 0.06
v 0.15 0.06 0.06
v 0.18 0.06 0.06
v 0.21 0.06 0.06
v -0.21 0.06 0.03
v -0.18 0.06 0.03
v 0.09 0.06 0.03
v 0.12 0.06 0.03
v 0.15 0.06 0.03
v 0.18 0.06 0.03
v 0.21 0.06 0.03
v -0.21 0.06 0
v -0.18 0.06 0
v -0.15 0.06 0
v -0.12 0.06 0
v -0.06 0.06 0
v 0.06 0.06 0
v 0.09 0.06 0
v 0.12 0.06 0
v 0.15 0.06 0
v 0.18 0.06 0
v 0.21 0.06 0
v -0.18 0.06 -0.03
v -0.15 0.06 -0.03
v -0.12 0.06 -0.03
v -0.09 0.06 -0.03
v -0.21 0.06 -0.06
v -0.15 0.06 -0.06
v -0.12 0.06 -0.06
v -0.09 0.06 -0.06
v -0.06 0.06 -0.06
v -0.03 0.06 -0.06
v 0.03 0.06 -0.06
v 0.09 0.06 -0.06
v 0.12 0.06 -0.06
v 0.15 0.06 -0.06
v 0.18 0.06 -0.06
v 0.21 0.06 -0.06
v -0.21 0.06 -0.09
v -0.15 0.06 -0.09
v -0.12 0.06 -0.09
v -0.06 0.06 -0.09
v -0.03 0.06 -0.09
v 0.03 0.06 -0.09
v 0.09 0.06 -0.09
v 0.12 0.06 -0.09
v 0.15 0.06 -0.09
v 0.21 0.06 -0.09
v -0.24 0.06 -0.12
v -0.03 0.06 -0.12
v 0.03 0.06 -0.12
v 0.24 0.06 -0.12

# faces
f 3/7/1 2/7/1 1/7/1
f 4/7/1 2/7/1 3/7/1
f 5/8/1 4/8/1 3/8/1
f 6/8/1 4/8/1 5/8/1
f 7/7/2 8/7/2 9/7/2
f 9/7/2 8/7/2 10/7/2
f 9/8/2 10/8/2 11/8/2
f 11/8/2 10/8/2 12/8/2
f 16/7/3 14/7/3 13/7/3
f 17/8/3 15/8/3 14/8/3
f 17/7/3 14/7/3 16/7/3
f 18/8/3 15/8/3 17/8/3
f 19/2/3 17/2/3 16/2/3
f 20/1/3 18/1/3 17/1/3
f 20/2/3 17/2/3 19/2/3
f 21/1/3 18/1/3 20/1/3
f 22/7/3 20/7/3 19/7/3
f 23/8/3 21/8/3 20/8/3
f 23/7/3 20/7/3 22/7/3
f 24/8/3 21/8/3 23/8/3
f 25/7/4 26/7/4 28/7/4
f 26/8/4 27/8/4 29/8/4
f 28/7/4 26/7/4 29/7/4
f 29/8/4 27/8/4 30/8/4
f 28/2/4 29/2/4 31/2/4
f 29/1/4 30/1/4 32/1/4
f 31/2/4 29/2/4 32/2/4
f 32/1/4 30/1/4 33/1/4
f 31/7/4 32/7/4 34/7/4
f 32/8/4 33/8/4 35/8/4
f 34/7/4 32/7/4 35/7/4
f 35/8/4 33/8/4 36/8/4
f 41/7/5 38/7/5 37/7/5
f 42/7/5 38/7/5 41/7/5
f 43/7/5 38/7/5 42/7/5
f 44/2/5 39/2/5 38/2/5
f 44/7/5 38/7/5 43/7/5
f 45/7/5 40/7/5 39/7/5
f 46/7/5 40/7/5 45/7/5
f 47/7/5 40/7/5 46/7/5
f 48/7/5 40/7/5 47/7/5
f 49/7/5 40/7/5 48/7/5
f 50/7/5 41/7/5 37/7/5
f 50/5/5 42/5/5 41/5/5
f 51/6/5 43/6/5 42/6/5
f 51/5/5 42/5/5 50/5/5
f 52/5/5 44/5/5 43/5/5
f 52/6/5 43/6/5 51/6/5
f 53/2/5 39/2/5 44/2/5
f 53/5/5 44/5/5 52/5/5
f 54/3/5 47/3/5 46/3/5
f 54/6/5 48/6/5 47/6/5
f 55/5/5 49/5/5 48/5/5
f 55/6/5 48/6/5 54/6/5
f 56/7/5 40/7/5 49/7/5
f 56/5/5 49/5/5 55/5/5
f 57/7/5 50/7/5 37/7/5
f 57/6/5 51/6/5 50/6/5
f 58/7/5 52/7/5 51/7/5
f 58/6/5 51/6/5 57/6/5
f 58/7/5 53/7/5 52/7/5
f 59/3/5 55/3/5 54/3/5
f 59/3/5 54/3/5 46/3/5
f 59/4/5 46/4/5 45/4/5
f 60/3/5 55/3/5 59/3/5
f 61/3/5 55/3/5 60/3/5
f 62/6/5 56/6/5 55/6/5
f 62/3/5 55/3/5 61/3/5
f 63/7/5 40/7/5 56/7/5
f 63/6/5 56/6/5 62/6/5
f 64/7/5 57/7/5 37/7/5
f 64/7/5 58/7/5 57/7/5
f 65/7/5 53/7/5 58/7/5
f 65/7/5 58/7/5 64/7/5
f 66/7/5 53/7/5 65/7/5
f 67/7/5 53/7/5 66/7/5
f 68/7/5 53/7/5 67/7/5
f 69/7/5 45/7/5 39/7/5
f 69/4/5 59/4/5 45/4/5
f 69/4/5 60/4/5 59/4/5
f 70/4/5 60/4/5 69/4/5
f 71/3/5 61/3/5 60/3/5
f 71/4/5 60/4/5 70/4/5
f 72/4/5 62/4/5 61/4/5
f 72/3/5 61/3/5 71/3/5
f 72/4/5 63/4/5 62/4/5
f 73/4/5 63/4/5 72/4/5
f 74/7/5 40/7/5 63/7/5
f 74/4/5 63/4/5 73/4/5
f 75/3/5 65/3/5 64/3/5
f 75/4/5 66/4/5 65/4/5
f 76/3/5 67/3/5 66/3/5
f 76/4/5 66/4/5 75/4/5
f 77/4/5 68/4/5 67/4/5
f 77/3/5 67/3/5 76/3/5
f 78/4/5 68/4/5 77/4/5
f 79/7/5 64/7/5 37/7/5
f 79/3/5 76/3/5 75/3/5
f 79/3/5 75/3/5 64/3/5
f 80/4/5 77/4/5 76/4/5
f 80/3/5 76/3/5 79/3/5
f 81/3/5 78/3/5 77/3/5
f 81/4/5 77/4/5 80/4/5
f 82/4/5 68/4/5 78/4/5
f 82/3/5 78/3/5 81/3/5
f 83/7/5 53/7/5 68/7/5
f 83/4/5 68/4/5 82/4/5
f 84/2/5 39/2/5 53/2/5
f 84/7/5 53/7/5 83/7/5
f 85/7/5 69/7/5 39/7/5
f 85/2/5 39/2/5 84/2/5
f 85/7/5 70/7/5 69/7/5
f 86/3/5 73/3/5 72/3/5
f 86/7/5 70/7/5 85/7/5
f 86/3/5 71/3/5 70/3/5
f 86/3/5 72/3/5 71/3/5
f 87/3/5 73/3/5 86/3/5
f 88/3/5 73/3/5 87/3/5
f 89/7/5 74/7/5 73/7/5
f 89/3/5 73/3/5 88/3/5
f 90/7/5 40/7/5 74/7/5
f 90/7/5 74/7/5 89/7/5
f 91/5/5 80/5/5 79/5/5
f 91/7/5 79/7/5 37/7/5
f 92/7/5 81/7/5 80/7/5
f 92/5/5 80/5/5 91/5/5
f 93/6/5 82/6/5 81/6/5
f 93/7/5 81/7/5 92/7/5
f 93/6/5 83/6/5 82/6/5
f 94/5/5 84/5/5 83/5/5
f 94/6/5 83/6/5 93/6/5
f 95/2/5 85/2/5 84/2/5
f 95/5/5 84/5/5 94/5/5
f 96/5/5 86/5/5 85/5/5
f 96/2/5 85/2/5 95/2/5
f 97/4/5 87/4/5 86/4/5
f 97/5/5 86/5/5 96/5/5
f 98/3/5 88/3/5 87/3/5
f 98/4/5 87/4/5 97/4/5
f 99/5/5 89/5/5 88/5/5
f 99/3/5 88/3/5 98/3/5
f 99/5/5 90/5/5 89/5/5
f 100/7/5 40/7/5 90/7/5
f 100/5/5 90/5/5 99/5/5
f 101/7/5 94/7/5 93/7/5
f 101/7/5 91/7/5 37/7/5
f 101/7/5 93/7/5 92/7/5
f 101/7/5 95/7/5 94/7/5
f 101/7/5 92/7/5 91/7/5
f 102/2/5 96/2/5 95/2/5
f 102/7/5 95/7/5 101/7/5
f 103/7/5 97/7/5 96/7/5
f 103/2/5 96/2/5 102/2/5
f 103/7/5 100/7/5 99/7/5
f 103/7/5 99/7/5 98/7/5
f 103/7/5 98/7/5 97/7/5
f 104/7/5 40/7/5 100/7/5
f 104/7/5 100/7/5 103/7/5
f 105/8/6 106/8/6 109/8/6
f 109/8/6 106/8/6 110/8/6
f 110/8/6 106/8/6 111/8/6
f 106/1/6 107/1/6 112/1/6
f 111/8/6 106/8/6 112/8/6
f 107/8/6 108/8/6 113/8/6
f 113/8/6 108/8/6 114/8/6
f 114/8/6 108/8/6 115/8/6
f 115/8/6 108/8/6 116/8/6
f 116/8/6 108/8/6 117/8/6
f 105/8/6 109/8/6 118/8/6
f 109/5/6 110/5/6 118/5/6
f 110/6/6 111/6/6 119/6/6
f 118/5/6 110/5/6 119/5/6
f 111/5/6 112/5/6 120/5/6
f 119/6/6 111/6/6 120/6/6
f 112/1/6 107/1/6 121/1/6
f 120/5/6 112/5/6 121/5/6
f 114/3/6 115/3/6 122/3/6
f 115/6/6 116/6/6 122/6/6
f 116/5/6 117/5/6 123/5/6
f 122/6/6 116/6/6 123/6/6
f 117/8/6 108/8/6 124/8/6
f 123/5/6 117/5/6 124/5/6
f 105/8/6 118/8/6 125/8/6
f 118/6/6 119/6/6 125/6/6
f 119/8/6 120/8/6 126/8/6
f 125/6/6 119/6/6 126/6/6
f 120/8/6 121/8/6 126/8/6
f 122/3/6 123/3/6 127/3/6
f 114/3/6 122/3/6 127/3/6
f 113/4/6 114/4/6 127/4/6
f 127/3/6 123/3/6 128/3/6
f 128/3/6 123/3/6 129/3/6
f 123/6/6 124/6/6 130/6/6
f 129/3/6 123/3/6 130/3/6
f 124/8/6 108/8/6 131/8/6
f 130/6/6 124/6/6 131/6/6
f 105/8/6 125/8/6 132/8/6
f 125/8/6 126/8/6 132/8/6
f 126/8/6 121/8/6 133/8/6
f 132/8/6 126/8/6 133/8/6
f 133/8/6 121/8/6 134/8/6
f 134/8/6 121/8/6 135/8/6
f 135/8/6 121/8/6 136/8/6
f 107/8/6 113/8/6 137/8/6
f 113/4/6 127/4/6 137/4/6
f 127/4/6 128/4/6 137/4/6
f 137/4/6 128/4/6 138/4/6
f 128/3/6 129/3/6 139/3/6
f 138/4/6 128/4/6 139/4/6
f 129/4/6 130/4/6 140/4/6
f 139/3/6 129/3/6 140/3/6
f 130/4/6 131/4/6 140/4/6
f 140/4/6 131/4/6 141/4/6
f 131/8/6 108/8/6 142/8/6
f 141/4/6 131/4/6 142/4/6
f 132/3/6 133/3/6 143/3/6
f 133/4/6 134/4/6 143/4/6
f 134/3/6 135/3/6 144/3/6
f 143/4/6 134/4/6 144/4/6
f 135/4/6 136/4/6 145/4/6
f 144/3/6 135/3/6 145/3/6
f 145/4/6 136/4/6 146/4/6
f 105/8/6 132/8/6 147/8/6
f 143/3/6 144/3/6 147/3/6
f 132/3/6 143/3/6 147/3/6
f 144/4/6 145/4/6 148/4/6
f 147/3/6 144/3/6 148/3/6
f 145/3/6 146/3/6 149/3/6
f 148/4/6 145/4/6 149/4/6
f 146/4/6 136/4/6 150/4/6
f 149/3/6 146/3/6 150/3/6
f 136/8/6 121/8/6 151/8/6
f 150/4/6 136/4/6 151/4/6
f 121/1/6 107/1/6 152/1/6
f 151/8/6 121/8/6 152/8/6
f 107/8/6 137/8/6 153/8/6
f 152/1/6 107/1/6 153/1/6
f 137/8/6 138/8/6 153/8/6
f 140/3/6 141/3/6 154/3/6
f 153/8/6 138/8/6 154/8/6
f 138/3/6 139/3/6 154/3/6
f 139/3/6 140/3/6 154/3/6
f 154/3/6 141/3/6 155/3/6
f 155/3/6 141/3/6 156/3/6
f 141/8/6 142/8/6 157/8/6
f 156/3/6 141/3/6 157/3/6
f 142/8/6 108/8/6 158/8/6
f 157/8/6 142/8/6 158/8/6
f 147/5/6 148/5/6 159/5/6
f 105/8/6 147/8/6 159/8/6
f 148/8/6 149/8/6 160/8/6
f 159/5/6 148/5/6 160/5/6
f 149/6/6 150/6/6 161/6/6
f 160/8/6 149/8/6 161/8/6
f 150/6/6 151/6/6 161/6/6
f 151/5/6 152/5/6 162/5/6
f 161/6/6 151/6/6 162/6/6
f 152/1/6 153/1/6 163/1/6
f 162/5/6 152/5/6 163/5/6
f 153/5/6 154/5/6 164/5/6
f 163/1/6 153/1/6 164/1/6
f 154/4/6 155/4/6 165/4/6
f 164/5/6 154/5/6 165/5/6
f 155/3/6 156/3/6 166/3/6
f 165/4/6 155/4/6 166/4/6
f 156/5/6 157/5/6 167/5/6
f 166/3/6 156/3/6 167/3/6
f 157/5/6 158/5/6 167/5/6
f 158/8/6 108/8/6 168/8/6
f 167/5/6 158/5/6 168/5/6
f 161/8/6 162/8/6 169/8/6
f 105/8/6 159/8/6 169/8/6
f 160/8/6 161/8/6 169/8/6
f 162/8/6 163/8/6 169/8/6
f 159/8/6 160/8/6 169/8/6
f 163/1/6 164/1/6 170/1/6
f 169/8/6 163/8/6 170/8/6
f 164/8/6 165/8/6 171/8/6
f 170/1/6 164/1/6 171/1/6
f 167/8/6 168/8/6 171/8/6
f 166/8/6 167/8/6 171/8/6
f 165/8/6 166/8/6 171/8/6
f 168/8/6 108/8/6 172/8/6
f 171/8/6 168/8/6 172/8/6
