# ProBuilder 4.1.0
# https://unity3d.com/unity/features/worldbuilding/probuilder
# 2023-10-22 PM 1:27:03

mtllib ./1F.mtl
o 1F

g 1F
v 9.170013 1.37152 3.222412
v 9.170013 1.371535 3.350311
v 9.184662 1.336165 3.222412
v 9.184662 1.33618 3.350311
v 9.220001 1.32152 3.222412
v 9.220001 1.321535 3.350311
v 9.255371 1.336165 3.222412
v 9.255371 1.33618 3.350311
v 9.27002 1.37152 3.222412
v 9.27002 1.371535 3.350311
v 9.255371 1.406875 3.222412
v 9.255371 1.406891 3.350311
v 9.220001 1.42152 3.222412
v 9.220001 1.421535 3.350311
v 9.184662 1.406875 3.222412
v 9.184662 1.406891 3.350311
v 9.220001 1.37152 3.222412
v 9.220001 1.371535 3.350311
v 9.394348 0.11912 3.320007
v 8.109985 0.11912 3.320007
v 9.394348 2.899129 3.320007
v 8.109985 2.899129 3.320007
v 8.109985 0.11912 3.258881
v 8.109985 2.899129 3.258881
v 9.394348 0.11912 3.258881
v 9.394348 2.899129 3.258881
v 20.28067 0.1199765 20.28461
v 18.28067 0.1199765 20.28461
v 20.28067 4.119977 20.28461
v 18.28067 4.119977 20.28461
v 18.28067 0.1199765 19.72818
v 18.28067 4.119977 19.72818
v 20.28067 0.1199765 3.284607
v 20.28067 4.119977 3.284607
v 2.28067 0.1199765 20.28461
v 0.2806702 0.1199765 20.28461
v 2.28067 4.119977 20.28461
v 0.2806702 4.119977 20.28461
v 0.2806702 0.1199765 3.284607
v 0.2806702 4.119977 3.284607
v 2.28067 0.1199765 18.93488
v 2.28067 4.119977 18.93488
v 14.28067 0.1199765 20.05457
v 2.28067 0.1199765 20.05457
v 14.28067 4.119977 20.05457
v 2.28067 4.119977 20.05457
v 16.28067 0.1199765 20.28461
v 14.28067 0.1199765 20.28461
v 16.28067 4.119977 20.28461
v 14.28067 4.119977 20.28461
v 14.28067 0.1199765 19.42239
v 14.28067 4.119977 19.42239
v 16.28067 0.1199765 19.44949
v 16.28067 4.119977 19.44949
v 0.7866821 0.1199765 23.1546
v 0.4866943 0.1199765 23.1546
v 0.7866821 3.119977 23.1546
v 0.4866943 3.119977 23.1546
v 0.4866943 0.1199765 20.1546
v 0.4866943 3.119977 20.1546
v 0.7866821 0.1199765 20.1546
v 0.7866821 3.119977 20.1546
v 1.786713 0.1199765 23.1546
v 1.786713 3.119977 23.1546
v 0.7867126 0.1199765 22.85461
v 1.786713 0.1199765 22.85461
v 0.7867126 3.119977 22.85461
v 1.786713 3.119977 22.85461
v 18.28067 0.1199765 20.08658
v 16.28067 0.1199765 20.08658
v 18.28067 4.119977 20.08658
v 16.28067 4.119977 20.08658
v 20.28436 3.855976 8.26001
v 20.26625 3.855976 8.26001
v 20.28436 4.855976 8.26001
v 20.26625 4.855977 8.26001
v 20.26625 3.855976 7.26001
v 20.28436 3.855976 7.26001
v 20.26625 4.855977 7.26001
v 20.28436 4.855976 7.26001
v 20.44501 0.1199765 23.1546
v 20.145 0.1199765 23.1546
v 20.44501 3.119977 23.1546
v 20.145 3.119977 23.1546
v 20.145 0.1199765 20.1546
v 20.145 3.119977 20.1546
v 20.44501 0.1199765 20.1546
v 20.44501 3.119977 20.1546
v 3.557007 3.855976 3.282013
v 3.557007 3.855976 3.30011
v 3.557007 4.855976 3.282013
v 3.557007 4.855977 3.30011
v 2.557007 3.855976 3.30011
v 2.557007 3.855976 3.282013
v 2.557007 4.855977 3.30011
v 2.557007 4.855976 3.282013
v 0.2810059 0.1191189 3.284607
v 20.28101 0.1191189 3.284607
v 0.2810059 4.12 3.284607
v 20.28101 4.12 3.284607

vt 4.917383E-07 1.907349E-06
vt -5.51343E-07 0.1279035
vt 0.03826858 -1.430511E-06
vt 0.03826706 0.1279001
vt 0.02706528 -5.662441E-07
vt 0.02705956 0.1278972
vt 0.06532955 -5.662441E-07
vt 0.06532383 0.1278972
vt -0.03826901 1.907349E-06
vt -0.03827035 0.1279082
vt -0.06532955 1.311302E-06
vt -0.06532383 0.1279083
vt -0.02706718 1.311302E-06
vt -0.02706051 0.1279083
vt 0.04999924 0
vt 0.0146513 0.03535533
vt -0.05000305 -1.484156E-05
vt -0.01465321 0.03534025
vt 0.04999924 0.05000001
vt -0.04999447 0.04999354
vt 0.05000019 0.05000001
vt 0.05000019 0
vt 0.0853548 0.03535537
vt -0.05000305 0.0499849
vt -0.08535767 0.03534028
vt 0.09999943 0
vt -0.1000147 -6.213784E-06
vt 0.08535671 -0.03535533
vt -0.08536243 -0.03537089
vt 0.05000019 -0.05000001
vt -0.05000305 -0.05001548
vt 0.04999924 -0.05000001
vt 0.01464462 -0.03535536
vt -0.01464844 -0.03537086
vt 0.2843628 0
vt -1 0
vt 0.2843628 2.780009
vt -1 2.780009
vt -0.06112671 0
vt 0 2.780009
vt -0.06112671 2.780009
vt 1 0
vt -0.2843628 0
vt 1 2.780009
vt -0.2843628 2.780009
vt 0.06112671 0
vt 0.06112671 2.780009
vt -0.2843628 -0.06112671
vt 1 -0.06112671
vt 0.2843628 -0.06112671
vt -1 -0.06112671
vt -2 -1.192093E-07
vt 0 4
vt -2 4
vt -0.556427 -1.192093E-07
vt -0.556427 4
vt 17 -1.192093E-07
vt 17 4
vt -17 -1.192093E-07
vt -17 4
vt 1.349731 -1.192093E-07
vt 1.349731 4
vt 0.9299068 0.5114805
vt 0.5678005 0.5114805
vt 0.9299068 0.6150334
vt 0.5678005 0.6150334
vt -0.8622131 -1.192093E-07
vt -0.8622131 4
vt 0.8351135 -1.192093E-07
vt 0.8351135 4
vt -0.2999992 0
vt 0 3
vt -0.2999992 3
vt -3 0
vt -3 3
vt 3 0
vt 3 3
vt 0.2999992 0
vt 0 -3
vt 0.2999992 -3
vt -1 3
vt 1 3
vt 0.2999992 3
vt 0 -0.2999992
vt 1 -0.2999992
vt -0.01811218 0
vt 0 1
vt -0.01811218 1
vt 0.01811218 0
vt 0.01811218 1
vt 0.5015979 0.4982963
vt 0.4273791 0.4982963
vt 0.5015979 0.6232963
vt 0.4273791 0.6232963
vt 1.316285E-05 -1
vt 0.01812535 -1
vt -0.01811218 -1
vt -0.3 0
vt -0.3 3
vt 0.3 0
vt 0.3 3
vt 0.3 -3
vt 20 -1.000881
vt 0 -1.000881
vt 20 3

vn -0.9238446 -0.3827678 4.42384E-05
vn -0.3828303 -0.9238187 0.0001084925
vn 0.3825484 -0.9239355 0.0001085062
vn 0.9238446 -0.3827678 4.495192E-05
vn 0.9238446 0.3827678 -4.42384E-05
vn 0.3825484 0.9239355 -0.0001119508
vn -0.3828303 0.9238187 -0.0001119367
vn -0.9238446 0.3827678 -4.637897E-05
vn 0 0 -1
vn 0 0 1
vn -1 0 0
vn 1 0 0
vn 0 1 0
vn 0 -1 0

usemtl Metal041A_1K_1
f 1/1/9 17/15/9 3/16/9
f 3/16/9 17/15/9 5/19/9
f 5/21/9 17/22/9 7/23/9
f 7/23/9 17/22/9 9/26/9
f 9/26/9 17/22/9 11/28/9
f 11/28/9 17/22/9 13/30/9
f 13/32/9 17/15/9 15/33/9
f 15/33/9 17/15/9 1/1/9
f 4/18/10 18/17/10 2/1/10
f 6/20/10 18/17/10 4/18/10
f 8/25/10 18/17/10 6/24/10
f 10/27/10 18/17/10 8/25/10
f 12/29/10 18/17/10 10/27/10
f 14/31/10 18/17/10 12/29/10
f 16/34/10 18/17/10 14/31/10
f 2/1/10 18/17/10 16/34/10
f 4/4/1 2/2/1 1/1/1
f 1/1/1 3/3/1 4/4/1
f 6/8/2 4/6/2 3/5/2
f 3/5/2 5/7/2 6/8/2
f 8/8/3 6/6/3 5/5/3
f 5/5/3 7/7/3 8/8/3
f 10/4/4 8/2/4 7/1/4
f 7/1/4 9/3/4 10/4/4
f 12/2/5 10/10/5 9/9/5
f 9/9/5 11/1/5 12/2/5
f 14/14/6 12/12/6 11/11/6
f 11/11/6 13/13/6 14/14/6
f 16/14/7 14/12/7 13/11/7
f 13/11/7 15/13/7 16/14/7
f 2/2/8 16/10/8 15/9/8
f 15/9/8 1/1/8 2/2/8

usemtl Metal041A_1K
f 21/37/10 22/38/10 20/36/10 19/35/10
f 22/40/11 24/41/11 23/39/11 20/1/11
f 24/44/9 26/45/9 25/43/9 23/42/9
f 26/47/12 21/40/12 19/1/12 25/46/12
f 26/48/13 24/49/13 22/42/13 21/43/13
f 19/35/14 20/36/14 23/51/14 25/50/14

usemtl bricks02_1KWhiteMat
f 29/53/10 30/54/10 28/52/10 27/1/10
f 30/53/11 32/56/11 31/55/11 28/1/11
f 34/58/12 29/53/12 27/1/12 33/57/12
f 37/53/10 38/54/10 36/52/10 35/1/10
f 38/53/11 40/60/11 39/59/11 36/1/11
f 42/62/12 37/53/12 35/1/12 41/61/12
f 49/53/10 50/54/10 48/52/10 47/1/10
f 50/53/11 52/68/11 51/67/11 48/1/11
f 54/70/12 49/53/12 47/1/12 53/69/12
f 57/72/10 58/73/10 56/71/10 55/1/10
f 58/72/11 60/75/11 59/74/11 56/1/11
f 62/77/12 57/72/12 55/1/12 61/76/12
f 62/79/13 60/80/13 58/78/13 57/1/13
f 64/72/10 57/81/10 55/36/10 63/1/10
f 67/82/9 68/72/9 66/1/9 65/42/9
f 68/83/12 64/72/12 63/1/12 66/78/12
f 68/84/13 67/85/13 57/42/13 64/1/13
f 83/72/10 84/99/10 82/98/10 81/1/10
f 84/72/11 86/75/11 85/74/11 82/1/11
f 86/101/9 88/72/9 87/1/9 85/100/9
f 88/77/12 83/72/12 81/1/12 87/76/12
f 88/79/13 86/102/13 84/100/13 83/1/13
f 99/105/9 100/72/9 98/104/9 97/103/9

usemtl Facade006_2KMat_1
f 45/65/10 46/66/10 44/64/10 43/63/10
f 75/87/10 76/88/10 74/86/10 73/1/10
f 79/90/9 80/87/9 78/1/9 77/89/9
f 80/93/12 75/94/12 73/92/12 78/91/12
f 80/95/13 79/96/13 76/89/13 75/1/13
f 73/1/14 74/86/14 77/97/14 78/95/14
f 91/87/12 92/88/12 90/86/12 89/1/12
f 95/90/11 96/87/11 94/1/11 93/89/11
f 96/93/9 91/94/9 89/92/9 94/91/9
f 96/95/13 95/96/13 92/89/13 91/1/13
f 89/1/14 90/86/14 93/97/14 94/95/14

usemtl SteelShutterMat
f 71/53/10 72/54/10 70/52/10 69/1/10

