# ProBuilder 4.1.0
# https://unity3d.com/unity/features/worldbuilding/probuilder
# 2023-10-22 PM 1:30:46

mtllib ./2F.mtl
o 2F

g 2F
v 16.99336 7.098976 20.22241
v 16.99336 7.098991 20.35031
v 17.00801 7.063621 20.22241
v 17.00801 7.063636 20.35031
v 17.04337 7.048976 20.22241
v 17.04337 7.048991 20.35031
v 17.07872 7.063621 20.22241
v 17.07872 7.063636 20.35031
v 17.09337 7.098976 20.22241
v 17.09337 7.098991 20.35031
v 17.07872 7.134332 20.22241
v 17.07872 7.134347 20.35031
v 17.04337 7.148976 20.22241
v 17.04337 7.148992 20.35031
v 17.00801 7.134332 20.22241
v 17.00801 7.134347 20.35031
v 17.04337 7.098976 20.22241
v 17.04337 7.098991 20.35031
v 17.21771 5.846576 20.32001
v 15.93335 5.846576 20.32001
v 17.21771 8.626585 20.32001
v 15.93335 8.626585 20.32001
v 15.93335 5.846576 20.25888
v 15.93335 8.626585 20.25888
v 17.21771 5.846576 20.25888
v 17.21771 8.626585 20.25888
v 14.78067 7.119976 23.285
v 0.7806702 7.119976 23.285
v 14.78067 10.11998 23.285
v 0.7806702 10.11998 23.285
v 14.78067 7.119976 20.26938
v 14.78067 10.11998 20.26938
v 0.7806702 7.119976 23.28461
v 0.2806702 7.119976 23.28461
v 0.7806702 10.11998 23.28461
v 0.2806702 10.11998 23.28461
v 0.2806702 7.119976 3.284607
v 0.2806702 10.11998 3.284607
v 20.14368 4.119976 23.28461
v 20.14368 4.119976 3.284607
v 20.14368 7.119976 23.28461
v 20.14368 7.119976 3.284607
v 20.28067 4.119976 3.284607
v 20.28067 4.119976 23.28461
v 20.28067 7.119976 3.284607
v 20.28067 7.119976 23.28461
v 20.28067 5.860129 23.28461
v 14.66818 5.860129 23.28461
v 20.28067 5.860129 20.20645
v 14.66818 5.860129 20.20645
v 20.28101 5.845363 20.28461
v 14.72372 5.845363 20.28461
v 20.28101 10.11998 20.28461
v 14.72372 10.11998 20.28461
v 0.2806702 4.119976 23.28461
v 0.2806702 4.119976 3.284607
v 20.28436 9.851999 8.26001
v 20.25589 9.851999 8.26001
v 20.28436 10.852 8.26001
v 20.25589 10.852 8.26001
v 20.25589 9.851999 7.26001
v 20.28436 9.851999 7.26001
v 20.25589 10.852 7.26001
v 20.28436 10.852 7.26001
v 14.798 4.119975 20.13504
v 14.798 4.119975 23.27899
v 14.798 7.119975 20.13504
v 14.798 7.119975 23.27899
v 14.66101 7.119975 23.27899
v 14.66101 7.119975 20.13504
v 20.28067 4.119976 19.14392
v 0.2806702 4.119976 19.14392
v 0.2806702 4.119976 23.1459
v 20.28067 4.119976 23.1459
v 0.2806702 7.119976 23.1459
v 20.28067 7.119976 23.1459
v 20.28101 7.119976 3.284607
v 20.28101 7.119976 20.28461
v 20.28101 10.11998 3.284607
v 3.557007 9.851999 3.282013
v 3.557007 9.851999 3.30011
v 3.557007 10.852 3.282013
v 3.557007 10.852 3.30011
v 2.557007 9.851999 3.30011
v 2.557007 9.851999 3.282013
v 2.557007 10.852 3.30011
v 2.557007 10.852 3.282013
v 0.2810059 7.12 3.284607
v 0.2810059 10.12 3.284607
v 0.2810059 4.120022 3.284607
v 20.28101 4.120022 3.284607
v 0.2810059 7.120022 3.284607
v 20.28101 7.120022 3.284607

vt 0 1.66893E-06
vt 0 0.1279008
vt 0.03826904 -1.192093E-06
vt 0.03826714 0.127898
vt 0.02706575 -1.907349E-06
vt 0.02705956 0.1278973
vt 0.06533051 -1.907349E-06
vt 0.06532431 0.1278973
vt -0.03826904 9.536743E-07
vt -0.03827095 0.127908
vt -0.06532955 1.907349E-06
vt -0.06532335 0.1279087
vt -0.02706575 1.907349E-06
vt -0.02705956 0.1279087
vt 0.05000019 0
vt 0.01464772 0.03535557
vt -0.05000305 -1.478195E-05
vt -0.01464844 0.03534031
vt 0.04999661 -8.583069E-06
vt 0.05002093 0.04999161
vt -0.04999948 -2.336502E-05
vt -0.05002379 0.04997635
vt 0.04999995 0.05000019
vt 0.08535552 0.03535557
vt -0.08535767 0.03534031
vt 0.1000001 0
vt -0.1000147 -6.198883E-06
vt 0.08535242 -0.03535557
vt -0.08535767 -0.03537083
vt 0.05000877 -0.05000877
vt -0.05000305 -0.05001545
vt 0.01464462 -0.03535557
vt -0.01464844 -0.03537083
vt 0.2843628 0
vt -1 0
vt 0.2843628 2.780009
vt -1 2.780009
vt -0.06112671 0
vt 0 2.780009
vt -0.06112671 2.780009
vt 1 0
vt -0.2843628 0
vt 1 2.780009
vt -0.2843628 2.780009
vt 0.06112671 0
vt 0.06112671 2.780009
vt -0.2843628 -0.06112671
vt 1 -0.06112671
vt 0.2843628 -0.06112671
vt -1 -0.06112671
vt 0.5862761 0.2521582
vt 0.4056063 0.2521582
vt 0.5862761 0.3134112
vt 0.4056063 0.3134112
vt 0.7190056 0.2521582
vt 0.6872368 0.2521582
vt 0.7190056 0.3134112
vt 0.6872368 0.3134112
vt -0.5 4.768372E-07
vt 0 3
vt -0.5 3
vt -20 4.768372E-07
vt -20 3
vt 20 0
vt 20 3
vt 0.1369934 0
vt 0 -20
vt 0.1369934 -20
vt 5.612488 0
vt 0 -3.078156
vt 5.612488 -3.078156
vt 0 -1.274613
vt -5.557281 -1.274613
vt -5.557281 3
vt -0.0284729 0
vt 0 1
vt -0.0284729 1
vt 0.0284729 0
vt 0.0284729 1
vt 0.5015979 0.4982963
vt 0.4273791 0.4982963
vt 0.5015979 0.6232963
vt 0.4273791 0.6232963
vt 0 -1
vt 0.0284729 -1
vt -0.0284729 -1
vt 3.143951 0
vt 3.143951 3
vt 0 -3.143951
vt 0.1369934 -3.143951
vt 0 -4.140686
vt -20 -4.140686
vt 0 -0.1387024
vt 20 -0.1387024
vt 17 4.768372E-07
vt 17 3
vt -0.01811218 0
vt -0.01811218 1
vt 0.01811218 0
vt 0.01811218 1
vt 0.01812553 -1
vt -0.01811218 -1
vt 20 2.999999
vt 0 2.999999

vn -0.9238455 -0.3827655 4.423814E-05
vn -0.3826893 -0.9238771 0.0001102216
vn 0.3826893 -0.9238771 0.0001102216
vn 0.9238455 -0.3827655 4.566518E-05
vn 0.9238455 0.3827655 -4.423814E-05
vn 0.3826893 0.9238771 -0.0001102216
vn -0.3826893 0.9238771 -0.0001102216
vn -0.9238455 0.3827655 -4.566518E-05
vn 0 0 -1
vn 0 0 1
vn -1 0 0
vn 1 0 0
vn 0 1 0
vn 0 -1 0

usemtl Metal041A_1K_1
f 1/1/9 17/15/9 3/16/9
f 3/16/9 17/19/9 5/20/9
f 5/23/9 17/19/9 7/24/9
f 7/24/9 17/19/9 9/26/9
f 9/26/9 17/19/9 11/28/9
f 11/28/9 17/19/9 13/30/9
f 13/30/9 17/15/9 15/32/9
f 15/32/9 17/15/9 1/1/9
f 4/18/10 18/17/10 2/1/10
f 6/22/10 18/21/10 4/18/10
f 8/25/10 18/17/10 6/22/10
f 10/27/10 18/17/10 8/25/10
f 12/29/10 18/17/10 10/27/10
f 14/31/10 18/17/10 12/29/10
f 16/33/10 18/17/10 14/31/10
f 2/1/10 18/17/10 16/33/10
f 4/4/1 2/2/1 1/1/1
f 1/1/1 3/3/1 4/4/1
f 6/8/2 4/6/2 3/5/2
f 3/5/2 5/7/2 6/8/2
f 8/8/3 6/6/3 5/5/3
f 5/5/3 7/7/3 8/8/3
f 10/4/4 8/2/4 7/1/4
f 7/1/4 9/3/4 10/4/4
f 12/2/5 10/10/5 9/9/5
f 9/9/5 11/1/5 12/2/5
f 14/14/6 12/12/6 11/11/6
f 11/11/6 13/13/6 14/14/6
f 16/14/7 14/12/7 13/11/7
f 13/11/7 15/13/7 16/14/7
f 2/2/8 16/10/8 15/9/8
f 15/9/8 1/1/8 2/2/8

usemtl Metal041A_1K
f 21/36/10 22/37/10 20/35/10 19/34/10
f 22/39/11 24/40/11 23/38/11 20/1/11
f 24/43/9 26/44/9 25/42/9 23/41/9
f 26/46/12 21/39/12 19/1/12 25/45/12
f 26/47/13 24/48/13 22/41/13 21/42/13
f 19/34/14 20/35/14 23/50/14 25/49/14

usemtl Facade009_1K
f 29/53/10 30/54/10 28/52/10 27/51/10
f 32/57/12 29/58/12 27/56/12 31/55/12

usemtl bricks02_1KWhiteMat
f 35/60/10 36/61/10 34/59/10 33/1/10
f 36/60/11 38/63/11 37/62/11 34/1/11
f 41/60/11 42/63/11 40/62/11 39/1/11
f 45/65/12 46/60/12 44/1/12 43/64/12
f 45/67/13 42/68/13 41/66/13 46/1/13
f 53/60/10 54/74/10 52/73/10 51/72/10
f 34/60/11 37/63/11 56/62/11 55/1/11
f 67/88/12 68/60/12 66/1/12 65/87/12
f 67/89/13 70/90/13 69/66/13 68/1/13
f 46/60/10 34/63/10 55/62/10 44/1/10
f 75/65/9 76/60/9 74/1/9 73/64/9
f 76/93/13 75/94/13 34/64/13 46/1/13
f 79/96/12 53/60/12 78/1/12 77/95/12
f 89/103/9 79/104/9 77/1/9 88/64/9
f 92/65/9 93/60/9 91/1/9 90/64/9

usemtl concrete03Mat4
f 49/70/13 50/71/13 48/69/13 47/1/13
f 44/1/14 55/62/14 72/92/14 71/91/14

usemtl Facade006_2KMat_1
f 59/76/10 60/77/10 58/75/10 57/1/10
f 63/79/9 64/76/9 62/1/9 61/78/9
f 64/82/12 59/83/12 57/81/12 62/80/12
f 64/84/13 63/85/13 60/78/13 59/1/13
f 57/1/14 58/75/14 61/86/14 62/84/14
f 82/76/12 83/98/12 81/97/12 80/1/12
f 86/100/11 87/76/11 85/1/11 84/99/11
f 87/82/9 82/83/9 80/81/9 85/80/9
f 87/84/13 86/101/13 83/99/13 82/1/13
f 80/1/14 81/97/14 84/102/14 85/84/14

