# ProBuilder 4.1.0
# https://unity3d.com/unity/features/worldbuilding/probuilder
# 2023-10-22 PM 1:38:57

mtllib ./3F.mtl
o 3F

g 3F
v 17.21771 11.84658 20.32001
v 15.93335 11.84658 20.32001
v 17.21771 14.62659 20.32001
v 15.93335 14.62659 20.32001
v 15.93335 11.84658 20.25888
v 15.93335 14.62659 20.25888
v 17.21771 11.84658 20.25888
v 17.21771 14.62659 20.25888
v 16.99336 13.09898 20.22241
v 16.99336 13.09899 20.35031
v 17.00801 13.06362 20.22241
v 17.00801 13.06363 20.35031
v 17.04337 13.04897 20.22241
v 17.04337 13.04899 20.35031
v 17.07872 13.06362 20.22241
v 17.07872 13.06363 20.35031
v 17.09337 13.09898 20.22241
v 17.09337 13.09899 20.35031
v 17.07872 13.13433 20.22241
v 17.07872 13.13435 20.35031
v 17.04337 13.14898 20.22241
v 17.04337 13.14899 20.35031
v 17.00801 13.13433 20.22241
v 17.00801 13.13435 20.35031
v 17.04337 13.09898 20.22241
v 17.04337 13.09899 20.35031
v 20.28067 11.86013 23.28461
v 14.66818 11.86013 23.28461
v 20.28067 11.86013 20.20645
v 14.66818 11.86013 20.20645
v 20.28067 10.11998 23.28461
v 0.2806702 10.11998 23.28461
v 20.28067 13.11998 23.28461
v 0.2806702 13.11998 23.28461
v 0.2806702 10.11998 23.1459
v 20.28067 10.11998 23.1459
v 0.2806702 13.11998 23.1459
v 20.28067 13.11998 23.1459
v 20.28101 11.84536 20.28461
v 14.72372 11.84536 20.28461
v 20.28101 16.11998 20.28461
v 14.72372 16.11998 20.28461
v 14.78067 13.11998 23.285
v 0.7806702 13.11998 23.285
v 14.78067 16.11998 23.285
v 0.7806702 16.11998 23.285
v 14.78067 13.11998 20.26938
v 14.78067 16.11998 20.26938
v 14.798 10.11997 20.13504
v 14.798 10.11997 23.27899
v 14.798 13.11997 20.13504
v 14.798 13.11997 23.27899
v 14.66101 13.11997 23.27899
v 14.66101 13.11997 20.13504
v 0.2806702 10.11998 3.284607
v 0.2806702 13.11998 3.284607
v 20.14368 10.11998 23.28461
v 20.14368 10.11998 3.284607
v 20.14368 13.11998 23.28461
v 20.14368 13.11998 3.284607
v 20.28067 10.11998 3.284607
v 20.28067 13.11998 3.284607
v 20.28067 10.11998 19.14392
v 0.2806702 10.11998 19.14392
v 20.28101 13.11998 3.284607
v 20.28101 13.11998 20.28461
v 20.28101 16.11998 3.284607
v 20.28436 15.852 8.26001
v 20.27036 15.852 8.26001
v 20.28436 16.852 8.26001
v 20.27036 16.852 8.26001
v 20.27036 15.852 7.26001
v 20.28436 15.852 7.26001
v 20.27036 16.852 7.26001
v 20.28436 16.852 7.26001
v 0.7806702 13.11998 23.28461
v 0.7806702 16.11998 23.28461
v 0.2806702 16.11998 23.28461
v 0.2806702 16.11998 3.284607
v 0.2810059 13.11998 3.284607
v 0.2810059 16.11998 3.284607
v 0.2810059 10.12 3.284607
v 20.28101 10.12 3.284607
v 3.557007 15.852 3.282013
v 3.557007 15.852 3.30011
v 3.557007 16.852 3.282013
v 3.557007 16.852 3.30011
v 2.557007 15.852 3.30011
v 2.557007 15.852 3.282013
v 2.557007 16.852 3.30011
v 2.557007 16.852 3.282013

vt 0.2843628 0
vt -1 0
vt 0.2843628 2.780009
vt -1 2.780009
vt 0 0
vt -0.06112671 0
vt 0 2.780009
vt -0.06112671 2.780009
vt 1 0
vt -0.2843628 0
vt 1 2.780009
vt -0.2843628 2.780009
vt 0.06112671 0
vt 0.06112671 2.780009
vt -0.2843628 -0.06112671
vt 1 -0.06112671
vt 0.2843628 -0.06112671
vt -1 -0.06112671
vt 0 0.127903
vt 0.03826904 9.536743E-07
vt 0.03826714 0.1279001
vt 0.02706623 -1.907349E-06
vt 0.02706051 0.1278973
vt 0.06533051 -1.907349E-06
vt 0.06532383 0.1278973
vt -0.03826904 2.861023E-06
vt -0.03827095 0.1279097
vt -0.06533051 1.907349E-06
vt -0.06532478 0.1279087
vt -0.02706718 1.907349E-06
vt -0.02706051 0.1279087
vt 0.04999924 0
vt 0.01464748 0.03535557
vt -0.05000305 -1.478195E-05
vt -0.01464844 0.03534031
vt 0.05002022 0.04999161
vt -0.05000305 0.04998493
vt 0.05000019 0.05000019
vt 0.05000019 0
vt 0.0853548 0.03535581
vt -0.08535767 0.03534079
vt 0.09999943 0
vt -0.1000061 -1.478195E-05
vt 0.08535194 -0.03535557
vt -0.08535767 -0.03537083
vt 0.05000019 -0.05000019
vt -0.04998207 -0.05000687
vt 0.04999924 -0.05000019
vt 0.01464462 -0.03535533
vt -0.05000305 -0.05001545
vt -0.01464844 -0.03537035
vt 5.612488 0
vt 0 -3.078156
vt 5.612488 -3.078156
vt -20 0
vt 0 3
vt -20 3
vt 20 0
vt 20 3
vt 0 -0.1387024
vt 20 -0.1387024
vt 0 -1.274613
vt -5.557281 -1.274613
vt -5.557281 3
vt 0.486361 0.310931
vt 0.3056912 0.310931
vt 0.486361 0.372184
vt 0.3056912 0.372184
vt 0.7190056 0.2516055
vt 0.6872368 0.2516055
vt 0.7190056 0.3128586
vt 0.6872368 0.3128586
vt 3.143951 0
vt 3.143951 3
vt 0.1369934 0
vt 0 -3.143951
vt 0.1369934 -3.143951
vt 0 -20
vt 0.1369934 -20
vt 0 -4.140686
vt -20 -4.140686
vt 17 0
vt 17 3
vt -0.01400757 0
vt 0 1
vt -0.01400757 1
vt 0.01400757 0
vt 0.01400757 1
vt 0.5015979 0.4982961
vt 0.4273791 0.4982961
vt 0.5015979 0.6232961
vt 0.4273791 0.6232961
vt 0 -1
vt 0.01400757 -1
vt -0.01400757 -1
vt -0.5 0
vt -0.5 3
vt -0.01811218 0
vt -0.01811218 1
vt 0.01811218 0
vt 0.01811218 1
vt 0.01812536 -1
vt -0.01811218 -1

vn 0 0 1
vn -1 0 0
vn 0 0 -1
vn 1 0 0
vn 0 1 0
vn 0 -1 0
vn -0.9238492 -0.3827567 4.566413E-05
vn -0.3826893 -0.9238771 0.0001102216
vn 0.3826893 -0.9238771 0.0001102216
vn 0.9238492 -0.3827567 4.566413E-05
vn 0.9238419 0.3827744 -4.566623E-05
vn 0.3826893 0.9238771 -0.0001102216
vn -0.3826893 0.9238771 -0.0001102216
vn -0.9238419 0.3827744 -4.566623E-05

usemtl Metal041A_1K
f 3/3/1 4/4/1 2/2/1 1/1/1
f 4/7/2 6/8/2 5/6/2 2/5/2
f 6/11/3 8/12/3 7/10/3 5/9/3
f 8/14/4 3/7/4 1/5/4 7/13/4
f 8/15/5 6/16/5 4/9/5 3/10/5
f 1/1/6 2/2/6 5/18/6 7/17/6

usemtl Metal041A_1K_1
f 9/5/3 25/32/3 11/33/3
f 11/33/3 25/32/3 13/36/3
f 13/38/3 25/39/3 15/40/3
f 15/40/3 25/39/3 17/42/3
f 17/42/3 25/39/3 19/44/3
f 19/44/3 25/39/3 21/46/3
f 21/48/3 25/32/3 23/49/3
f 23/49/3 25/32/3 9/5/3
f 12/35/1 26/34/1 10/5/1
f 14/37/1 26/34/1 12/35/1
f 16/41/1 26/34/1 14/37/1
f 18/43/1 26/34/1 16/41/1
f 20/45/1 26/34/1 18/43/1
f 22/47/1 26/34/1 20/45/1
f 24/51/1 26/34/1 22/50/1
f 10/5/1 26/34/1 24/51/1
f 12/21/7 10/19/7 9/5/7
f 9/5/7 11/20/7 12/21/7
f 14/25/8 12/23/8 11/22/8
f 11/22/8 13/24/8 14/25/8
f 16/25/9 14/23/9 13/22/9
f 13/22/9 15/24/9 16/25/9
f 18/21/10 16/19/10 15/5/10
f 15/5/10 17/20/10 18/21/10
f 20/19/11 18/27/11 17/26/11
f 17/26/11 19/5/11 20/19/11
f 22/31/12 20/29/12 19/28/12
f 19/28/12 21/30/12 22/31/12
f 24/31/13 22/29/13 21/28/13
f 21/28/13 23/30/13 24/31/13
f 10/19/14 24/27/14 23/26/14
f 23/26/14 9/5/14 10/19/14

usemtl concrete03Mat4
f 29/53/5 30/54/5 28/52/5 27/5/5
f 31/5/6 32/55/6 64/81/6 63/80/6

usemtl bricks02_1KWhiteMat
f 33/56/1 34/57/1 32/55/1 31/5/1
f 37/59/3 38/56/3 36/5/3 35/58/3
f 38/60/5 37/61/5 34/58/5 33/5/5
f 41/56/1 42/64/1 40/63/1 39/62/1
f 51/74/4 52/56/4 50/5/4 49/73/4
f 51/76/5 54/77/5 53/75/5 52/5/5
f 34/56/2 56/57/2 55/55/2 32/5/2
f 59/56/2 60/57/2 58/55/2 57/5/2
f 62/59/4 33/56/4 31/5/4 61/58/4
f 62/78/5 60/79/5 59/75/5 33/5/5
f 67/83/4 41/56/4 66/5/4 65/82/4
f 77/56/1 78/97/1 34/96/1 76/5/1
f 78/56/2 79/57/2 56/55/2 34/5/2
f 81/59/3 67/56/3 65/5/3 80/58/3
f 80/59/3 65/56/3 83/5/3 82/58/3

usemtl Facade009_1K
f 45/67/1 46/68/1 44/66/1 43/65/1
f 48/71/4 45/72/4 43/70/4 47/69/4

usemtl Facade006_2KMat_1
f 70/85/1 71/86/1 69/84/1 68/5/1
f 74/88/3 75/85/3 73/5/3 72/87/3
f 75/91/4 70/92/4 68/90/4 73/89/4
f 75/93/5 74/94/5 71/87/5 70/5/5
f 68/5/6 69/84/6 72/95/6 73/93/6
f 86/85/4 87/99/4 85/98/4 84/5/4
f 90/101/2 91/85/2 89/5/2 88/100/2
f 91/91/3 86/92/3 84/90/3 89/89/3
f 91/93/5 90/102/5 87/100/5 86/5/5
f 84/5/6 85/98/6 88/103/6 89/93/6

