# ProBuilder 4.1.0
# https://unity3d.com/unity/features/worldbuilding/probuilder
# 2023-10-22 PM 1:48:00

mtllib ./6F.mtl
o 6F

g 6F
v 16.99336 31.09898 20.22241
v 16.99336 31.09899 20.35031
v 17.00801 31.06362 20.22241
v 17.00801 31.06364 20.35031
v 17.04337 31.04898 20.22241
v 17.04337 31.04899 20.35031
v 17.07872 31.06362 20.22241
v 17.07872 31.06364 20.35031
v 17.09337 31.09898 20.22241
v 17.09337 31.09899 20.35031
v 17.07872 31.13433 20.22241
v 17.07872 31.13435 20.35031
v 17.04337 31.14898 20.22241
v 17.04337 31.14899 20.35031
v 17.00801 31.13433 20.22241
v 17.00801 31.13435 20.35031
v 17.04337 31.09898 20.22241
v 17.04337 31.09899 20.35031
v 17.21771 29.84658 20.32001
v 15.93335 29.84658 20.32001
v 17.21771 32.62659 20.32001
v 15.93335 32.62659 20.32001
v 15.93335 29.84658 20.25888
v 15.93335 32.62659 20.25888
v 17.21771 29.84658 20.25888
v 17.21771 32.62659 20.25888
v 20.28067 28.11998 19.14392
v 0.2806702 28.11998 19.14392
v 20.28067 28.11998 23.28461
v 0.2806702 28.11998 23.28461
v 0.2806702 28.11998 3.284607
v 0.2806702 31.11998 23.28461
v 0.2806702 31.11998 3.284607
v 14.798 28.11998 20.13504
v 14.798 28.11998 23.27899
v 14.798 31.11998 20.13504
v 14.798 31.11998 23.27899
v 14.66101 31.11998 23.27899
v 14.66101 31.11998 20.13504
v 20.28436 33.852 8.26001
v 20.27036 33.852 8.26001
v 20.28436 34.852 8.26001
v 20.27036 34.852 8.26001
v 20.27036 33.852 7.26001
v 20.28436 33.852 7.26001
v 20.27036 34.852 7.26001
v 20.28436 34.852 7.26001
v 20.14368 28.11998 23.28461
v 20.14368 28.11998 3.284607
v 20.14368 31.11998 23.28461
v 20.14368 31.11998 3.284607
v 20.28067 28.11998 3.284607
v 20.28067 31.11998 3.284607
v 20.28067 31.11998 23.28461
v 20.28101 31.11998 3.284607
v 20.28101 31.11998 20.28461
v 20.28101 34.11998 3.284607
v 20.28101 34.11998 20.28461
v 20.28101 29.84536 20.28461
v 14.72372 29.84536 20.28461
v 14.72372 34.11998 20.28461
v 0.7806702 31.11998 23.28461
v 0.7806702 34.11998 23.28461
v 0.2806702 34.11998 23.28461
v 0.2806702 34.11998 3.284607
v 14.78067 31.11998 23.285
v 0.7806702 31.11998 23.285
v 14.78067 34.11998 23.285
v 0.7806702 34.11998 23.285
v 14.78067 31.11998 20.26938
v 14.78067 34.11998 20.26938
v 20.28067 29.86013 23.28461
v 14.66818 29.86013 23.28461
v 20.28067 29.86013 20.20645
v 14.66818 29.86013 20.20645
v 0.2806702 28.11998 23.1459
v 20.28067 28.11998 23.1459
v 0.2806702 31.11998 23.1459
v 20.28067 31.11998 23.1459
v 0.2810059 31.11998 3.284607
v 0.2810059 34.11998 3.284607
v 0.2810059 28.12 3.284607
v 20.28101 28.12 3.284607
v 0.2810059 31.12 3.284607
v 20.28101 31.12 3.284607
v 3.557007 33.852 3.282013
v 3.557007 33.852 3.30011
v 3.557007 34.852 3.282013
v 3.557007 34.852 3.30011
v 2.557007 33.852 3.30011
v 2.557007 33.852 3.282013
v 2.557007 34.852 3.30011
v 2.557007 34.852 3.282013

vt 1.907349E-06 3.814697E-06
vt 0 0.127903
vt 0.03826904 9.536743E-07
vt 0.03826714 0.1279001
vt 0.02706623 -1.907349E-06
vt 0.02706051 0.1278973
vt 0.06533051 -1.907349E-06
vt 0.06532383 0.1278973
vt -0.03826904 2.861023E-06
vt -0.03827095 0.1279097
vt -0.06532955 1.907349E-06
vt -0.06532383 0.1279087
vt -0.02706528 1.907349E-06
vt -0.02705956 0.1279087
vt 0.04999924 0
vt 0.01464748 0.03535557
vt -0.05000305 -1.478195E-05
vt -0.01464844 0.03534031
vt 0.04999924 0.05000019
vt -0.05000305 0.04998493
vt 0.05000019 0.05000019
vt 0.05000019 0
vt 0.0853548 0.03535533
vt -0.08535767 0.03534007
vt 0.09999943 0
vt -0.1000061 -1.478195E-05
vt 0.08535194 -0.03535557
vt -0.08535767 -0.03537083
vt 0.05000019 -0.05000019
vt -0.04998207 -0.05000687
vt 0.04999924 -0.05000019
vt 0.01464462 -0.03535533
vt -0.05000305 -0.05001545
vt -0.01464844 -0.03537035
vt 0.2843628 0
vt -1 0
vt 0.2843628 2.780009
vt -1 2.780009
vt -0.06112671 0
vt 0 2.780009
vt -0.06112671 2.780009
vt 1 0
vt -0.2843628 0
vt 1 2.780009
vt -0.2843628 2.780009
vt 0.06112671 0
vt 0.06112671 2.780009
vt -0.2843628 -0.06112671
vt 1 -0.06112671
vt 0.2843628 -0.06112671
vt -1 -0.06112671
vt 0 -4.140686
vt -20 -4.140686
vt -20 0
vt 0 3
vt -20 3
vt 3.143951 0
vt 3.143951 3
vt 0.1369934 0
vt 0 -3.143951
vt 0.1369934 -3.143951
vt -0.01400757 0
vt 0 1
vt -0.01400757 1
vt 0.01400757 0
vt 0.01400757 1
vt 0.5015979 0.4982961
vt 0.4273791 0.4982961
vt 0.5015979 0.6232961
vt 0.4273791 0.6232961
vt 0 -1
vt 0.01400757 -1
vt -0.01400757 -1
vt 20 0
vt 20 3
vt 0 -20
vt 0.1369934 -20
vt 17 0
vt 17 3
vt 0 -1.274613
vt -5.557281 -1.274613
vt -5.557281 3
vt -0.5 0
vt -0.5 3
vt 0.5862761 0.2521574
vt 0.4056063 0.2521574
vt 0.5862761 0.3134105
vt 0.4056063 0.3134105
vt 0.7190056 0.2521577
vt 0.6872368 0.2521577
vt 0.7190056 0.3134108
vt 0.6872368 0.3134108
vt 5.612488 0
vt 0 -3.078156
vt 5.612488 -3.078156
vt 0 -0.1387024
vt 20 -0.1387024
vt -0.01811218 0
vt -0.01811218 1
vt 0.01811218 0
vt 0.01811218 1
vt 0.01812536 -1
vt -0.01811218 -1

vn -0.9238419 -0.3827744 4.566623E-05
vn -0.3826893 -0.9238771 0.0001102216
vn 0.3826893 -0.9238771 0.0001102216
vn 0.9238419 -0.3827744 4.566623E-05
vn 0.9238419 0.3827744 -4.566623E-05
vn 0.3826893 0.9238771 -0.0001102216
vn -0.3826893 0.9238771 -0.0001102216
vn -0.9238419 0.3827744 -4.566623E-05
vn 0 0 -1
vn 0 0 1
vn -1 0 0
vn 1 0 0
vn 0 1 0
vn 0 -1 0

usemtl Metal041A_1K_1
f 1/1/9 17/15/9 3/16/9
f 3/16/9 17/15/9 5/19/9
f 5/21/9 17/22/9 7/23/9
f 7/23/9 17/22/9 9/25/9
f 9/25/9 17/22/9 11/27/9
f 11/27/9 17/22/9 13/29/9
f 13/31/9 17/15/9 15/32/9
f 15/32/9 17/15/9 1/1/9
f 4/18/10 18/17/10 2/1/10
f 6/20/10 18/17/10 4/18/10
f 8/24/10 18/17/10 6/20/10
f 10/26/10 18/17/10 8/24/10
f 12/28/10 18/17/10 10/26/10
f 14/30/10 18/17/10 12/28/10
f 16/34/10 18/17/10 14/33/10
f 2/1/10 18/17/10 16/34/10
f 4/4/1 2/2/1 1/1/1
f 1/1/1 3/3/1 4/4/1
f 6/8/2 4/6/2 3/5/2
f 3/5/2 5/7/2 6/8/2
f 8/8/3 6/6/3 5/5/3
f 5/5/3 7/7/3 8/8/3
f 10/4/4 8/2/4 7/1/4
f 7/1/4 9/3/4 10/4/4
f 12/2/5 10/10/5 9/9/5
f 9/9/5 11/1/5 12/2/5
f 14/14/6 12/12/6 11/11/6
f 11/11/6 13/13/6 14/14/6
f 16/14/7 14/12/7 13/11/7
f 13/11/7 15/13/7 16/14/7
f 2/2/8 16/10/8 15/9/8
f 15/9/8 1/1/8 2/2/8

usemtl Metal041A_1K
f 21/37/10 22/38/10 20/36/10 19/35/10
f 22/40/11 24/41/11 23/39/11 20/1/11
f 24/44/9 26/45/9 25/43/9 23/42/9
f 26/47/12 21/40/12 19/1/12 25/46/12
f 26/48/13 24/49/13 22/42/13 21/43/13
f 19/35/14 20/36/14 23/51/14 25/50/14

usemtl concrete03Mat
f 29/1/14 30/54/14 28/53/14 27/52/14
f 74/94/13 75/95/13 73/93/13 72/1/13

usemtl bricks02_1KWhiteMat
f 32/55/11 33/56/11 31/54/11 30/1/11
f 36/58/12 37/55/12 35/1/12 34/57/12
f 36/60/13 39/61/13 38/59/13 37/1/13
f 50/55/11 51/56/11 49/54/11 48/1/11
f 53/75/12 54/55/12 29/1/12 52/74/12
f 53/76/13 51/77/13 50/59/13 54/1/13
f 57/79/12 58/55/12 56/1/12 55/78/12
f 58/55/10 61/82/10 60/81/10 59/80/10
f 63/55/10 64/84/10 32/83/10 62/1/10
f 64/55/11 65/56/11 33/54/11 32/1/11
f 54/55/10 32/56/10 30/54/10 29/1/10
f 78/75/9 79/55/9 77/1/9 76/74/9
f 79/96/13 78/97/13 32/74/13 54/1/13
f 81/75/9 57/55/9 55/1/9 80/74/9
f 84/75/9 85/55/9 83/1/9 82/74/9

usemtl Facade006_2KMat_1
f 42/63/10 43/64/10 41/62/10 40/1/10
f 46/66/9 47/63/9 45/1/9 44/65/9
f 47/69/12 42/70/12 40/68/12 45/67/12
f 47/71/13 46/72/13 43/65/13 42/1/13
f 40/1/14 41/62/14 44/73/14 45/71/14
f 88/63/12 89/99/12 87/98/12 86/1/12
f 92/101/11 93/63/11 91/1/11 90/100/11
f 93/69/9 88/70/9 86/68/9 91/67/9
f 93/71/13 92/102/13 89/100/13 88/1/13
f 86/1/14 87/98/14 90/103/14 91/71/14

usemtl Facade009_1K
f 68/87/10 69/88/10 67/86/10 66/85/10
f 71/91/12 68/92/12 66/90/12 70/89/12

