# ProBuilder 4.1.0
# https://unity3d.com/unity/features/worldbuilding/probuilder
# 2023-10-22 PM 1:50:16

mtllib ./7F.mtl
o 7F

g 7F
v 17.21771 35.84658 20.32001
v 15.93335 35.84658 20.32001
v 17.21771 38.62659 20.32001
v 15.93335 38.62659 20.32001
v 15.93335 35.84658 20.25888
v 15.93335 38.62659 20.25888
v 17.21771 35.84658 20.25888
v 17.21771 38.62659 20.25888
v 16.99336 37.09898 20.22241
v 16.99336 37.09899 20.35031
v 17.00801 37.06362 20.22241
v 17.00801 37.06364 20.35031
v 17.04337 37.04898 20.22241
v 17.04337 37.04899 20.35031
v 17.07872 37.06362 20.22241
v 17.07872 37.06364 20.35031
v 17.09337 37.09898 20.22241
v 17.09337 37.09899 20.35031
v 17.07872 37.13433 20.22241
v 17.07872 37.13435 20.35031
v 17.04337 37.14898 20.22241
v 17.04337 37.14899 20.35031
v 17.00801 37.13433 20.22241
v 17.00801 37.13435 20.35031
v 17.04337 37.09898 20.22241
v 17.04337 37.09899 20.35031
v 20.28067 34.11998 19.14392
v 0.2806702 34.11998 19.14392
v 20.28067 34.11998 23.28461
v 0.2806702 34.11998 23.28461
v 20.28067 35.86013 23.28461
v 14.66818 35.86013 23.28461
v 20.28067 35.86013 20.20645
v 14.66818 35.86013 20.20645
v 14.78067 37.11998 23.285
v 0.7806702 37.11998 23.285
v 14.78067 40.11998 23.285
v 0.7806702 40.11998 23.285
v 14.78067 37.11998 20.26938
v 14.78067 40.11998 20.26938
v 20.28101 37.11998 3.284607
v 20.28101 37.11998 20.28461
v 20.28101 40.11998 3.284607
v 20.28101 40.11998 20.28461
v 0.2806702 34.11998 3.284607
v 0.2806702 37.11998 23.28461
v 0.2806702 37.11998 3.284607
v 14.798 34.11998 20.13504
v 14.798 34.11998 23.27899
v 14.798 37.11998 20.13504
v 14.798 37.11998 23.27899
v 14.66101 37.11998 23.27899
v 14.66101 37.11998 20.13504
v 20.28101 35.84536 20.28461
v 14.72372 35.84536 20.28461
v 14.72372 40.11998 20.28461
v 20.14368 34.11998 23.28461
v 20.14368 34.11998 3.284607
v 20.14368 37.11998 23.28461
v 20.14368 37.11998 3.284607
v 20.28067 34.11998 3.284607
v 20.28067 37.11998 3.284607
v 20.28067 37.11998 23.28461
v 0.7806702 37.11998 23.28461
v 0.7806702 40.11998 23.28461
v 0.2806702 40.11998 23.28461
v 0.2806702 40.11998 3.284607
v 20.28436 39.852 8.26001
v 20.27036 39.852 8.26001
v 20.28436 40.852 8.26001
v 20.27036 40.852 8.26001
v 20.27036 39.852 7.26001
v 20.28436 39.852 7.26001
v 20.27036 40.852 7.26001
v 20.28436 40.852 7.26001
v 0.2806702 34.11998 23.1459
v 20.28067 34.11998 23.1459
v 0.2806702 37.11998 23.1459
v 20.28067 37.11998 23.1459
v 0.2810059 37.12 3.284607
v 0.2810059 40.12 3.284607
v 3.557007 39.852 3.282013
v 3.557007 39.852 3.30011
v 3.557007 40.852 3.282013
v 3.557007 40.852 3.30011
v 2.557007 39.852 3.30011
v 2.557007 39.852 3.282013
v 2.557007 40.852 3.30011
v 2.557007 40.852 3.282013
v 0.2810059 34.12002 3.284607
v 20.28101 34.12002 3.284607
v 0.2810059 37.12002 3.284607
v 20.28101 37.12002 3.284607

vt 0.2843628 0
vt -1 0
vt 0.2843628 2.780009
vt -1 2.780009
vt 0 0
vt -0.06112671 0
vt 0 2.780009
vt -0.06112671 2.780009
vt 1 0
vt -0.2843628 0
vt 1 2.780009
vt -0.2843628 2.780009
vt 0.06112671 0
vt 0.06112671 2.780009
vt -0.2843628 -0.06112671
vt 1 -0.06112671
vt 0.2843628 -0.06112671
vt -1 -0.06112671
vt 0 0.1279047
vt 0.03826904 -3.099442E-06
vt 0.03826904 0.1278999
vt 0.02706528 -1.907349E-06
vt 0.02705956 0.1278973
vt 0.06533003 -1.907349E-06
vt 0.06532431 0.1278973
vt -0.03826904 9.536743E-07
vt -0.03827095 0.1279078
vt -0.06532907 1.907349E-06
vt -0.06532335 0.1279087
vt -0.02706528 1.907349E-06
vt -0.02705956 0.1279087
vt 0.05000019 0
vt 0.01464772 0.03535557
vt -0.05000305 -1.478195E-05
vt -0.01464844 0.03534031
vt 0.05000019 0.05000019
vt -0.05000305 0.04998493
vt 0.04999995 0.05000019
vt 0.04999995 0
vt 0.08535552 0.03535533
vt -0.08535767 0.03534007
vt 0.1000001 0
vt -0.1000061 -1.478195E-05
vt 0.08535242 -0.03535557
vt -0.08535767 -0.03537083
vt 0.04999995 -0.05000019
vt -0.04998231 -0.05000687
vt 0.05000019 -0.05000019
vt 0.01464462 -0.03535533
vt -0.05000305 -0.05001545
vt -0.01464844 -0.03537035
vt 0 -4.140686
vt -20 -4.140686
vt -20 0
vt 5.612488 0
vt 0 -3.078156
vt 5.612488 -3.078156
vt 0.9991322 0.4998879
vt 0.8184624 0.4998879
vt 0.9991322 0.5611405
vt 0.8184624 0.5611405
vt 0.2811985 0.1237378
vt 0.2494297 0.1237378
vt 0.2811985 0.1849904
vt 0.2494297 0.1849904
vt 17 0
vt 17 3
vt 0 3
vt -20 3
vt 3.143951 0
vt 3.143951 3
vt 0.1369934 0
vt 0 -3.143951
vt 0.1369934 -3.143951
vt 0 -1.274613
vt -5.557281 -1.274613
vt -5.557281 3
vt 20 0
vt 20 3
vt 0 -20
vt 0.1369934 -20
vt -0.5 0
vt -0.5 3
vt -0.01400757 0
vt 0 1
vt -0.01400757 1
vt 0.01400757 0
vt 0.01400757 1
vt 0.5015979 0.4982963
vt 0.4273791 0.4982963
vt 0.5015979 0.6232963
vt 0.4273791 0.6232963
vt 0 -1
vt 0.01400757 -1
vt -0.01400757 -1
vt 0 -0.1387024
vt 20 -0.1387024
vt -0.01811218 0
vt -0.01811218 1
vt 0.01811218 0
vt 0.01811218 1
vt 0.01812553 -1
vt -0.01811218 -1

vn 0 0 1
vn -1 0 0
vn 0 0 -1
vn 1 0 0
vn 0 1 0
vn 0 -1 0
vn -0.9238419 -0.3827744 4.566623E-05
vn -0.3826893 -0.9238771 0.0001102216
vn 0.3826893 -0.9238771 0.0001102216
vn 0.9238419 -0.3827744 4.566623E-05
vn 0.9238419 0.3827744 -4.566623E-05
vn 0.3826893 0.9238771 -0.0001102216
vn -0.3826893 0.9238771 -0.0001102216
vn -0.9238419 0.3827744 -4.566623E-05

usemtl Metal041A_1K
f 3/3/1 4/4/1 2/2/1 1/1/1
f 4/7/2 6/8/2 5/6/2 2/5/2
f 6/11/3 8/12/3 7/10/3 5/9/3
f 8/14/4 3/7/4 1/5/4 7/13/4
f 8/15/5 6/16/5 4/9/5 3/10/5
f 1/1/6 2/2/6 5/18/6 7/17/6

usemtl Metal041A_1K_1
f 9/5/3 25/32/3 11/33/3
f 11/33/3 25/32/3 13/36/3
f 13/38/3 25/39/3 15/40/3
f 15/40/3 25/39/3 17/42/3
f 17/42/3 25/39/3 19/44/3
f 19/44/3 25/39/3 21/46/3
f 21/48/3 25/32/3 23/49/3
f 23/49/3 25/32/3 9/5/3
f 12/35/1 26/34/1 10/5/1
f 14/37/1 26/34/1 12/35/1
f 16/41/1 26/34/1 14/37/1
f 18/43/1 26/34/1 16/41/1
f 20/45/1 26/34/1 18/43/1
f 22/47/1 26/34/1 20/45/1
f 24/51/1 26/34/1 22/50/1
f 10/5/1 26/34/1 24/51/1
f 12/21/7 10/19/7 9/5/7
f 9/5/7 11/20/7 12/21/7
f 14/25/8 12/23/8 11/22/8
f 11/22/8 13/24/8 14/25/8
f 16/25/9 14/23/9 13/22/9
f 13/22/9 15/24/9 16/25/9
f 18/21/10 16/19/10 15/5/10
f 15/5/10 17/20/10 18/21/10
f 20/19/11 18/27/11 17/26/11
f 17/26/11 19/5/11 20/19/11
f 22/31/12 20/29/12 19/28/12
f 19/28/12 21/30/12 22/31/12
f 24/31/13 22/29/13 21/28/13
f 21/28/13 23/30/13 24/31/13
f 10/19/14 24/27/14 23/26/14
f 23/26/14 9/5/14 10/19/14

usemtl concrete03Mat
f 29/5/6 30/54/6 28/53/6 27/52/6
f 33/56/5 34/57/5 32/55/5 31/5/5

usemtl Facade009_1K
f 37/60/1 38/61/1 36/59/1 35/58/1
f 40/64/4 37/65/4 35/63/4 39/62/4

usemtl bricks02_1KWhiteMat
f 43/67/4 44/68/4 42/5/4 41/66/4
f 46/68/2 47/69/2 45/54/2 30/5/2
f 50/71/4 51/68/4 49/5/4 48/70/4
f 50/73/5 53/74/5 52/72/5 51/5/5
f 44/68/1 56/77/1 55/76/1 54/75/1
f 59/68/2 60/69/2 58/54/2 57/5/2
f 62/79/4 63/68/4 29/5/4 61/78/4
f 62/80/5 60/81/5 59/72/5 63/5/5
f 65/68/1 66/83/1 46/82/1 64/5/1
f 66/68/2 67/69/2 47/54/2 46/5/2
f 63/68/1 46/69/1 30/54/1 29/5/1
f 78/79/3 79/68/3 77/5/3 76/78/3
f 79/96/5 78/97/5 46/78/5 63/5/5
f 81/79/3 43/68/3 41/5/3 80/78/3
f 92/79/3 93/68/3 91/5/3 90/78/3

usemtl Facade006_2KMat_1
f 70/85/1 71/86/1 69/84/1 68/5/1
f 74/88/3 75/85/3 73/5/3 72/87/3
f 75/91/4 70/92/4 68/90/4 73/89/4
f 75/93/5 74/94/5 71/87/5 70/5/5
f 68/5/6 69/84/6 72/95/6 73/93/6
f 84/85/4 85/99/4 83/98/4 82/5/4
f 88/101/2 89/85/2 87/5/2 86/100/2
f 89/91/3 84/92/3 82/90/3 87/89/3
f 89/93/5 88/102/5 85/100/5 84/5/5
f 82/5/6 83/98/6 86/103/6 87/93/6

